<?xml version="1.0" encoding="UTF-8" standalone="no"?><!DOCTYPE svg PUBLIC "-//W3C//DTD SVG 1.1//EN" "http://www.w3.org/Graphics/SVG/1.1/DTD/svg11.dtd"><svg width="100%" height="100%" viewBox="0 0 134 134" version="1.1" xmlns="http://www.w3.org/2000/svg" xmlns:xlink="http://www.w3.org/1999/xlink" xml:space="preserve" xmlns:serif="http://www.serif.com/" style="fill-rule:evenodd;clip-rule:evenodd;stroke-linejoin:round;stroke-miterlimit:2;"><path d="M61.538,-0c-33.759,0 -61.538,29.237 -61.538,64.768c0,35.531 27.779,64.768 61.538,64.768c33.759,0 61.538,-29.237 61.538,-64.768c0,-35.531 -27.779,-64.768 -61.538,-64.768Zm20.513,10.795c-28.133,0 -51.282,24.365 -51.282,53.974c0,29.609 23.15,53.974 51.282,53.974c28.133,0 51.282,-24.365 51.282,-53.974c0,-29.609 -23.15,-53.974 -51.282,-53.974Z" style="fill:url(#_Linear1);"/><path d="M61.538,-0c-33.759,0 -61.538,29.237 -61.538,64.768c0,35.531 27.779,64.768 61.538,64.768c33.759,0 61.538,-29.237 61.538,-64.768c0,-35.531 -27.779,-64.768 -61.538,-64.768Zm20.513,10.795c-28.133,0 -51.282,24.365 -51.282,53.974c0,29.609 23.15,53.974 51.282,53.974c28.133,0 51.282,-24.365 51.282,-53.974c0,-29.609 -23.15,-53.974 -51.282,-53.974Z" style="fill:url(#_Linear2);"/><ellipse cx="79.658" cy="64.768" rx="12.992" ry="12.779" style="fill:#008402;fill-opacity:0.45;"/><defs><linearGradient id="_Linear1" x1="0" y1="0" x2="1" y2="0" gradientUnits="userSpaceOnUse" gradientTransform="matrix(133.333333,0,0,140.331349,0,64.768315)"><stop offset="0" style="stop-color:#7ed37f;stop-opacity:1"/><stop offset="1" style="stop-color:#38a339;stop-opacity:1"/></linearGradient><linearGradient id="_Linear2" x1="0" y1="0" x2="1" y2="0" gradientUnits="userSpaceOnUse" gradientTransform="matrix(133.333333,0,0,140.331349,0,64.768315)"><stop offset="0" style="stop-color:#7ed37f;stop-opacity:1"/><stop offset="1" style="stop-color:#38a339;stop-opacity:1"/></linearGradient></defs></svg>